<mxfile host="app.diagrams.net" modified="2024-03-11T17:29:31.885Z" agent="Mozilla/5.0 (Windows NT 10.0; Win64; x64) AppleWebKit/537.36 (KHTML, like Gecko) Chrome/122.0.0.0 Safari/537.36" etag="Fzd3tWXg2S9VqAICh8Zl" version="24.0.4" type="github">
  <diagram name="Page-1" id="MxFsTh5EfBBZG-4ZZ3Ez">
    <mxGraphModel dx="1434" dy="746" grid="1" gridSize="10" guides="1" tooltips="1" connect="1" arrows="1" fold="1" page="1" pageScale="1" pageWidth="850" pageHeight="1100" math="0" shadow="0">
      <root>
        <mxCell id="0" />
        <mxCell id="1" parent="0" />
        <mxCell id="P2xLhk2kLivvHlx-UTb--2" value="SOUTH" style="text;html=1;align=center;verticalAlign=middle;whiteSpace=wrap;rounded=0;" vertex="1" parent="1">
          <mxGeometry x="50" y="730" width="60" height="30" as="geometry" />
        </mxCell>
        <mxCell id="P2xLhk2kLivvHlx-UTb--4" value="EAST" style="text;html=1;align=center;verticalAlign=middle;whiteSpace=wrap;rounded=0;" vertex="1" parent="1">
          <mxGeometry x="480" y="730" width="60" height="30" as="geometry" />
        </mxCell>
        <mxCell id="P2xLhk2kLivvHlx-UTb--5" value="WEST" style="text;html=1;align=center;verticalAlign=middle;whiteSpace=wrap;rounded=0;" vertex="1" parent="1">
          <mxGeometry x="60" y="80" width="60" height="30" as="geometry" />
        </mxCell>
        <mxCell id="P2xLhk2kLivvHlx-UTb--6" value="NORTH" style="text;html=1;align=center;verticalAlign=middle;whiteSpace=wrap;rounded=0;" vertex="1" parent="1">
          <mxGeometry x="510" y="80" width="60" height="30" as="geometry" />
        </mxCell>
        <mxCell id="P2xLhk2kLivvHlx-UTb--7" value="SOUTH-EAST" style="text;html=1;align=center;verticalAlign=middle;whiteSpace=wrap;rounded=0;" vertex="1" parent="1">
          <mxGeometry x="255" y="730" width="90" height="30" as="geometry" />
        </mxCell>
        <mxCell id="P2xLhk2kLivvHlx-UTb--8" value="NORTH-EAST" style="text;html=1;align=center;verticalAlign=middle;whiteSpace=wrap;rounded=0;" vertex="1" parent="1">
          <mxGeometry x="630" y="399.06" width="80" height="30" as="geometry" />
        </mxCell>
        <mxCell id="P2xLhk2kLivvHlx-UTb--9" value="SOUTH-WEST" style="text;html=1;align=center;verticalAlign=middle;whiteSpace=wrap;rounded=0;" vertex="1" parent="1">
          <mxGeometry y="390" width="90" height="30" as="geometry" />
        </mxCell>
        <mxCell id="P2xLhk2kLivvHlx-UTb--10" value="NORTH-WEST" style="text;html=1;align=center;verticalAlign=middle;whiteSpace=wrap;rounded=0;" vertex="1" parent="1">
          <mxGeometry x="270" y="80" width="100" height="30" as="geometry" />
        </mxCell>
        <mxCell id="P2xLhk2kLivvHlx-UTb--14" value="" style="verticalLabelPosition=bottom;html=1;verticalAlign=top;align=center;shape=mxgraph.floorplan.stairsRest;rotation=-180;" vertex="1" parent="1">
          <mxGeometry x="100" y="612.5" width="175" height="87.5" as="geometry" />
        </mxCell>
        <mxCell id="P2xLhk2kLivvHlx-UTb--17" value="" style="verticalLabelPosition=bottom;html=1;verticalAlign=top;align=center;shape=mxgraph.floorplan.wall;fillColor=strokeColor;" vertex="1" parent="1">
          <mxGeometry x="440" y="370" width="80" height="10" as="geometry" />
        </mxCell>
        <mxCell id="P2xLhk2kLivvHlx-UTb--23" value="" style="verticalLabelPosition=bottom;html=1;verticalAlign=top;align=center;shape=mxgraph.floorplan.wall;fillColor=strokeColor;direction=south;" vertex="1" parent="1">
          <mxGeometry x="160" y="350" width="10" height="130" as="geometry" />
        </mxCell>
        <mxCell id="P2xLhk2kLivvHlx-UTb--24" value="" style="verticalLabelPosition=bottom;html=1;verticalAlign=top;align=center;shape=mxgraph.floorplan.wall;fillColor=strokeColor;direction=south;" vertex="1" parent="1">
          <mxGeometry x="270" y="610" width="10" height="90" as="geometry" />
        </mxCell>
        <mxCell id="P2xLhk2kLivvHlx-UTb--25" value="" style="verticalLabelPosition=bottom;html=1;verticalAlign=top;align=center;shape=mxgraph.floorplan.wall;fillColor=strokeColor;" vertex="1" parent="1">
          <mxGeometry x="360" y="602.5" width="165" height="10" as="geometry" />
        </mxCell>
        <mxCell id="P2xLhk2kLivvHlx-UTb--26" value="" style="verticalLabelPosition=bottom;html=1;verticalAlign=top;align=center;shape=mxgraph.floorplan.wall;fillColor=strokeColor;" vertex="1" parent="1">
          <mxGeometry x="100" y="602.5" width="140" height="10" as="geometry" />
        </mxCell>
        <mxCell id="P2xLhk2kLivvHlx-UTb--27" value="" style="verticalLabelPosition=bottom;html=1;verticalAlign=top;align=center;shape=mxgraph.floorplan.wall;fillColor=strokeColor;" vertex="1" parent="1">
          <mxGeometry x="100" y="480" width="30" height="10" as="geometry" />
        </mxCell>
        <mxCell id="P2xLhk2kLivvHlx-UTb--28" value="" style="verticalLabelPosition=bottom;html=1;verticalAlign=top;align=center;shape=mxgraph.floorplan.wall;fillColor=strokeColor;direction=south;" vertex="1" parent="1">
          <mxGeometry x="230" y="530" width="10" height="72.5" as="geometry" />
        </mxCell>
        <mxCell id="P2xLhk2kLivvHlx-UTb--29" value="" style="verticalLabelPosition=bottom;html=1;verticalAlign=top;align=center;shape=mxgraph.floorplan.wall;fillColor=strokeColor;" vertex="1" parent="1">
          <mxGeometry x="440" y="480" width="80" height="10" as="geometry" />
        </mxCell>
        <mxCell id="P2xLhk2kLivvHlx-UTb--30" value="" style="verticalLabelPosition=bottom;html=1;verticalAlign=top;align=center;shape=mxgraph.floorplan.doorAccordion;dx=0.6;" vertex="1" parent="1">
          <mxGeometry x="280" y="602.5" width="120" height="10" as="geometry" />
        </mxCell>
        <mxCell id="P2xLhk2kLivvHlx-UTb--31" value="" style="verticalLabelPosition=bottom;html=1;verticalAlign=top;align=center;shape=mxgraph.floorplan.wall;fillColor=strokeColor;direction=south;" vertex="1" parent="1">
          <mxGeometry x="90" y="120" width="10" height="590" as="geometry" />
        </mxCell>
        <mxCell id="P2xLhk2kLivvHlx-UTb--32" value="" style="verticalLabelPosition=bottom;html=1;verticalAlign=top;align=center;shape=mxgraph.floorplan.wall;fillColor=strokeColor;direction=south;" vertex="1" parent="1">
          <mxGeometry x="520" y="120" width="10" height="260" as="geometry" />
        </mxCell>
        <mxCell id="P2xLhk2kLivvHlx-UTb--33" value="" style="verticalLabelPosition=bottom;html=1;verticalAlign=top;align=center;shape=mxgraph.floorplan.wall;fillColor=strokeColor;" vertex="1" parent="1">
          <mxGeometry x="100" y="120" width="420" height="10" as="geometry" />
        </mxCell>
        <mxCell id="P2xLhk2kLivvHlx-UTb--34" value="" style="verticalLabelPosition=bottom;html=1;verticalAlign=top;align=center;shape=mxgraph.floorplan.wall;fillColor=strokeColor;" vertex="1" parent="1">
          <mxGeometry x="270" y="700" width="260" height="10" as="geometry" />
        </mxCell>
        <mxCell id="P2xLhk2kLivvHlx-UTb--35" value="" style="verticalLabelPosition=bottom;html=1;verticalAlign=top;align=center;shape=mxgraph.floorplan.wall;fillColor=strokeColor;" vertex="1" parent="1">
          <mxGeometry x="90" y="700" width="190" height="10" as="geometry" />
        </mxCell>
        <mxCell id="P2xLhk2kLivvHlx-UTb--36" value="" style="verticalLabelPosition=bottom;html=1;verticalAlign=top;align=center;shape=mxgraph.floorplan.wall;fillColor=strokeColor;" vertex="1" parent="1">
          <mxGeometry x="90" y="390" width="80" height="10" as="geometry" />
        </mxCell>
        <mxCell id="P2xLhk2kLivvHlx-UTb--37" value="" style="verticalLabelPosition=bottom;html=1;verticalAlign=top;align=center;shape=mxgraph.floorplan.wall;fillColor=strokeColor;" vertex="1" parent="1">
          <mxGeometry x="100" y="310" width="190" height="10" as="geometry" />
        </mxCell>
        <mxCell id="P2xLhk2kLivvHlx-UTb--38" value="" style="verticalLabelPosition=bottom;html=1;verticalAlign=top;align=center;shape=mxgraph.floorplan.wall;fillColor=strokeColor;direction=south;" vertex="1" parent="1">
          <mxGeometry x="280" y="320" width="10" height="170" as="geometry" />
        </mxCell>
        <mxCell id="P2xLhk2kLivvHlx-UTb--39" value="" style="verticalLabelPosition=bottom;html=1;verticalAlign=top;align=center;shape=mxgraph.floorplan.wall;fillColor=strokeColor;" vertex="1" parent="1">
          <mxGeometry x="160" y="480" width="80" height="10" as="geometry" />
        </mxCell>
        <mxCell id="P2xLhk2kLivvHlx-UTb--41" value="" style="verticalLabelPosition=bottom;html=1;verticalAlign=top;align=center;shape=mxgraph.floorplan.doorLeft;aspect=fixed;rotation=-180;" vertex="1" parent="1">
          <mxGeometry x="240" y="440.63" width="46.47" height="49.37" as="geometry" />
        </mxCell>
        <mxCell id="P2xLhk2kLivvHlx-UTb--42" value="" style="verticalLabelPosition=bottom;html=1;verticalAlign=top;align=center;shape=mxgraph.floorplan.doorLeft;aspect=fixed;rotation=-180;" vertex="1" parent="1">
          <mxGeometry x="130" y="460.63" width="27.64" height="29.37" as="geometry" />
        </mxCell>
        <mxCell id="P2xLhk2kLivvHlx-UTb--43" value="" style="verticalLabelPosition=bottom;html=1;verticalAlign=top;align=center;shape=mxgraph.floorplan.doorLeft;aspect=fixed;rotation=90;" vertex="1" parent="1">
          <mxGeometry x="142.36" y="320.63" width="27.64" height="29.37" as="geometry" />
        </mxCell>
        <mxCell id="P2xLhk2kLivvHlx-UTb--44" value="" style="verticalLabelPosition=bottom;html=1;verticalAlign=top;align=center;shape=mxgraph.floorplan.doorLeft;aspect=fixed;rotation=90;" vertex="1" parent="1">
          <mxGeometry x="189.99999999999997" y="490" width="46.47" height="49.37" as="geometry" />
        </mxCell>
        <mxCell id="P2xLhk2kLivvHlx-UTb--45" value="" style="verticalLabelPosition=bottom;html=1;verticalAlign=top;align=center;shape=mxgraph.floorplan.wall;fillColor=strokeColor;" vertex="1" parent="1">
          <mxGeometry x="440" y="310" width="85" height="10" as="geometry" />
        </mxCell>
        <mxCell id="P2xLhk2kLivvHlx-UTb--47" value="" style="verticalLabelPosition=bottom;html=1;verticalAlign=top;align=center;shape=mxgraph.floorplan.wall;fillColor=strokeColor;" vertex="1" parent="1">
          <mxGeometry x="525" y="480" width="75" height="10" as="geometry" />
        </mxCell>
        <mxCell id="P2xLhk2kLivvHlx-UTb--48" value="" style="verticalLabelPosition=bottom;html=1;verticalAlign=top;align=center;shape=mxgraph.floorplan.wall;fillColor=strokeColor;" vertex="1" parent="1">
          <mxGeometry x="530" y="370" width="70" height="10" as="geometry" />
        </mxCell>
        <mxCell id="P2xLhk2kLivvHlx-UTb--50" value="" style="verticalLabelPosition=bottom;html=1;verticalAlign=top;align=center;shape=mxgraph.floorplan.doorDouble;aspect=fixed;rotation=-90;" vertex="1" parent="1">
          <mxGeometry x="425" y="329.06" width="60" height="31.88" as="geometry" />
        </mxCell>
        <mxCell id="P2xLhk2kLivvHlx-UTb--51" value="" style="verticalLabelPosition=bottom;html=1;verticalAlign=top;align=center;shape=mxgraph.floorplan.toilet;rotation=-180;" vertex="1" parent="1">
          <mxGeometry x="100" y="440.63" width="30" height="37" as="geometry" />
        </mxCell>
        <mxCell id="P2xLhk2kLivvHlx-UTb--52" value="" style="verticalLabelPosition=bottom;html=1;verticalAlign=top;align=center;shape=mxgraph.floorplan.sink_1;" vertex="1" parent="1">
          <mxGeometry x="100" y="399.06" width="30" height="30.94" as="geometry" />
        </mxCell>
        <mxCell id="P2xLhk2kLivvHlx-UTb--56" value="" style="verticalLabelPosition=bottom;html=1;verticalAlign=top;align=center;shape=mxgraph.floorplan.shower2;rotation=0;" vertex="1" parent="1">
          <mxGeometry x="130" y="400" width="30" height="30" as="geometry" />
        </mxCell>
        <mxCell id="P2xLhk2kLivvHlx-UTb--57" value="" style="verticalLabelPosition=bottom;html=1;verticalAlign=top;align=center;shape=mxgraph.floorplan.toilet;rotation=-180;" vertex="1" parent="1">
          <mxGeometry x="100" y="360" width="30" height="37" as="geometry" />
        </mxCell>
        <mxCell id="P2xLhk2kLivvHlx-UTb--58" value="" style="verticalLabelPosition=bottom;html=1;verticalAlign=top;align=center;shape=mxgraph.floorplan.sink_1;" vertex="1" parent="1">
          <mxGeometry x="100" y="319.06" width="30" height="30.94" as="geometry" />
        </mxCell>
        <mxCell id="P2xLhk2kLivvHlx-UTb--59" value="" style="verticalLabelPosition=bottom;html=1;verticalAlign=top;align=center;shape=mxgraph.floorplan.shower2;rotation=-180;" vertex="1" parent="1">
          <mxGeometry x="130" y="360" width="30" height="30" as="geometry" />
        </mxCell>
        <mxCell id="P2xLhk2kLivvHlx-UTb--60" value="" style="verticalLabelPosition=bottom;html=1;verticalAlign=top;align=center;shape=mxgraph.floorplan.doorAccordion;dx=0.6;" vertex="1" parent="1">
          <mxGeometry x="285" y="310.63" width="230" height="10" as="geometry" />
        </mxCell>
        <mxCell id="P2xLhk2kLivvHlx-UTb--61" value="" style="verticalLabelPosition=bottom;html=1;verticalAlign=top;align=center;shape=mxgraph.floorplan.sink_double2;rotation=90;" vertex="1" parent="1">
          <mxGeometry x="480" y="630" width="60" height="27.5" as="geometry" />
        </mxCell>
        <mxCell id="P2xLhk2kLivvHlx-UTb--62" value="" style="verticalLabelPosition=bottom;html=1;verticalAlign=top;align=center;shape=mxgraph.floorplan.range_1;" vertex="1" parent="1">
          <mxGeometry x="400" y="670" width="50" height="30" as="geometry" />
        </mxCell>
        <mxCell id="P2xLhk2kLivvHlx-UTb--63" value="" style="verticalLabelPosition=bottom;html=1;verticalAlign=top;align=center;shape=mxgraph.floorplan.range_2;" vertex="1" parent="1">
          <mxGeometry x="330" y="670" width="55" height="30" as="geometry" />
        </mxCell>
        <mxCell id="P2xLhk2kLivvHlx-UTb--64" value="" style="html=1;shadow=0;dashed=0;align=center;verticalAlign=middle;shape=mxgraph.arrows2.arrow;dy=0.6;dx=40;flipH=1;notch=0;" vertex="1" parent="1">
          <mxGeometry x="140" y="680" width="100" height="10" as="geometry" />
        </mxCell>
        <mxCell id="P2xLhk2kLivvHlx-UTb--67" value="Dining Area" style="text;html=1;align=center;verticalAlign=middle;whiteSpace=wrap;rounded=0;" vertex="1" parent="1">
          <mxGeometry x="330" y="539.37" width="130" height="30" as="geometry" />
        </mxCell>
        <mxCell id="P2xLhk2kLivvHlx-UTb--68" value="Function Hall Area" style="text;html=1;align=center;verticalAlign=middle;whiteSpace=wrap;rounded=0;" vertex="1" parent="1">
          <mxGeometry x="255" y="190" width="140" height="30" as="geometry" />
        </mxCell>
        <mxCell id="P2xLhk2kLivvHlx-UTb--69" value="Kitchen" style="text;html=1;align=center;verticalAlign=middle;whiteSpace=wrap;rounded=0;" vertex="1" parent="1">
          <mxGeometry x="360" y="630" width="60" height="30" as="geometry" />
        </mxCell>
        <mxCell id="P2xLhk2kLivvHlx-UTb--70" value="Mandir" style="text;html=1;align=center;verticalAlign=middle;whiteSpace=wrap;rounded=0;" vertex="1" parent="1">
          <mxGeometry x="465" y="330.94" width="60" height="30" as="geometry" />
        </mxCell>
        <mxCell id="P2xLhk2kLivvHlx-UTb--71" value="" style="verticalLabelPosition=bottom;html=1;verticalAlign=top;align=center;shape=mxgraph.floorplan.wall;fillColor=strokeColor;direction=south;" vertex="1" parent="1">
          <mxGeometry x="520" y="480" width="10" height="230" as="geometry" />
        </mxCell>
        <mxCell id="P2xLhk2kLivvHlx-UTb--73" value="" style="verticalLabelPosition=bottom;html=1;verticalAlign=top;align=center;shape=mxgraph.floorplan.window;rotation=90;" vertex="1" parent="1">
          <mxGeometry x="545" y="425.63" width="110" height="10" as="geometry" />
        </mxCell>
        <mxCell id="P2xLhk2kLivvHlx-UTb--75" value="" style="verticalLabelPosition=bottom;html=1;verticalAlign=top;align=center;shape=mxgraph.floorplan.bed_double;rotation=-90;" vertex="1" parent="1">
          <mxGeometry x="121.18" y="495" width="70" height="110" as="geometry" />
        </mxCell>
        <mxCell id="P2xLhk2kLivvHlx-UTb--65" value="Suite Room No. 1" style="text;html=1;align=center;verticalAlign=middle;whiteSpace=wrap;rounded=0;" vertex="1" parent="1">
          <mxGeometry x="145" y="535" width="45" height="30" as="geometry" />
        </mxCell>
        <mxCell id="P2xLhk2kLivvHlx-UTb--76" value="" style="verticalLabelPosition=bottom;html=1;verticalAlign=top;align=center;shape=mxgraph.floorplan.bed_double;rotation=-180;" vertex="1" parent="1">
          <mxGeometry x="170.00000000000003" y="370" width="70" height="110" as="geometry" />
        </mxCell>
        <mxCell id="P2xLhk2kLivvHlx-UTb--66" value="Suite Room No. 2" style="text;html=1;align=center;verticalAlign=middle;whiteSpace=wrap;rounded=0;" vertex="1" parent="1">
          <mxGeometry x="210" y="380" width="40" height="30" as="geometry" />
        </mxCell>
      </root>
    </mxGraphModel>
  </diagram>
</mxfile>
